# xmcd
#
# Track frame offsets:
#	150
#	25507
#	47305
#	66342
#	82130
#	94717
#	109730
#	125755
#	147257
#	182010
#	202090
#	218207
#	230505
#	245240
#	271415
#
# Disc length: 3773 seconds
#
# Revision: 0
# Processed by: cddbd v1.5.2PL0 Copyright (c) Steve Scherf et al.
# Submitted via: EasyCDDAExtractor 15.2.5.1
#
DISCID=df0ebb0f
DTITLE=Soundtracks - Film Music Songbook 1
DYEAR=1900
DGENRE=
TTITLE0=Betty Blue
TTITLE1=The Big Blue
TTITLE2=La Femme Nikita
TTITLE3=Last Tango in Paris
TTITLE4=The Godfather
TTITLE5=Doctor Zhivago
TTITLE6=Cinema Paradiso
TTITLE7=English Patient
TTITLE8=Romeo and Juliet
TTITLE9=Lowence Of Arabia
TTITLE10=The Mission
TTITLE11=A Man and A Woman
TTITLE12=A Little Romance
TTITLE13=Tess
TTITLE14=Diva
EXTD=
EXTT0=
EXTT1=
EXTT2=
EXTT3=
EXTT4=
EXTT5=
EXTT6=
EXTT7=
EXTT8=
EXTT9=
EXTT10=
EXTT11=
EXTT12=
EXTT13=
EXTT14=
PLAYORDER=
